<svg width="80" height="86" viewBox="0 0 80 86" fill="none" xmlns="http://www.w3.org/2000/svg">
<path d="M40 0C17.9036 0 0 19.2463 0 43C0 66.7537 17.9036 86 40 86C62.0964 86 80 66.7537 80 43C80 19.2463 62.0964 0 40 0ZM24.8214 61.7914C24.576 62.2414 24.2246 62.6141 23.8027 62.8719C23.3808 63.1297 22.9032 63.2635 22.4179 63.2599C21.9232 63.2646 21.4372 63.121 21.0143 62.8453C20.6994 62.6491 20.4236 62.388 20.2028 62.077C19.982 61.7659 19.8205 61.4111 19.7276 61.0328C19.6347 60.6545 19.6122 60.2602 19.6614 59.8725C19.7106 59.4848 19.8305 59.1114 20.0143 58.7737L22.7446 53.894C22.8826 53.6421 23.0795 53.4334 23.3157 53.2886C23.5519 53.1438 23.8192 53.0679 24.0911 53.0685H24.4946C26.475 53.0685 27.8607 54.3489 28.2643 55.589L24.8214 61.7914ZM47.9375 52.1932L30.0571 52.2143H18.1732C17.7993 52.216 17.429 52.136 17.0847 51.9792C16.7404 51.8225 16.4293 51.5921 16.1704 51.3022C15.9114 51.0123 15.7099 50.6689 15.578 50.2928C15.4462 49.9166 15.3869 49.5156 15.4036 49.1141C15.4607 47.5016 16.7696 46.2807 18.2607 46.2807H26.875L37.0875 27.5929L33.7804 21.5365C33.0357 20.1563 33.3661 18.3364 34.6429 17.4687C34.9576 17.2499 35.3103 17.1018 35.6797 17.0332C36.0491 16.9646 36.4276 16.9771 36.7924 17.0698C37.1572 17.1625 37.5008 17.3335 37.8025 17.5727C38.1043 17.8118 38.3579 18.114 38.5482 18.4612L40.3161 21.7073H40.3357L42.1054 18.4612C42.2959 18.1158 42.5491 17.8152 42.85 17.5773C43.1509 17.3394 43.4933 17.169 43.8567 17.0764C44.2202 16.9838 44.5973 16.9708 44.9655 17.0382C45.3337 17.1056 45.6855 17.252 46 17.4687C47.2696 18.3364 47.5964 20.1563 46.8464 21.5422L43.5393 27.5987L40.325 33.4901L33.3446 46.2864V46.3075H43.6321C44.9214 46.3075 46.5375 47.0524 47.1911 48.2502L47.2482 48.375C47.825 49.4289 48.1518 50.1526 48.1518 51.2065C48.1425 51.5487 48.0715 51.8857 47.9429 52.1989L47.9375 52.1932ZM61.8214 52.2143H56.9804V52.2354L60.5196 58.7065C60.9003 59.388 61.0168 60.203 60.8441 60.9759C60.6715 61.7489 60.2234 62.4181 59.5964 62.8395C59.1618 63.1244 58.6626 63.2751 58.1536 63.2753C57.6696 63.275 57.1939 63.1402 56.7727 62.8839C56.3516 62.6276 55.9992 62.2585 55.75 61.8125L50.5196 52.2412L47.2696 46.2903L43.0768 38.5848C42.4695 37.4846 42.1394 36.2332 42.119 34.954C42.0987 33.6749 42.3888 32.4121 42.9607 31.2902C43.7893 29.718 44.4232 29.3053 44.4232 29.3053L53.75 46.2634H61.7696C63.2696 46.2634 64.5571 47.5035 64.6268 49.0949C64.6412 49.4995 64.5794 49.903 64.4451 50.2813C64.3108 50.6596 64.1068 51.0048 63.8453 51.2961C63.5837 51.5875 63.2701 51.819 62.9233 51.9768C62.5764 52.1346 62.2034 52.2154 61.8268 52.2143H61.8214Z" fill="black"/>
</svg>
