<svg width="38" height="36" viewBox="0 0 38 36" fill="none" xmlns="http://www.w3.org/2000/svg">
<path d="M19 0C8.5042 0 0 8.05661 0 18C0 27.9434 8.5042 36 19 36C29.4958 36 38 27.9434 38 18C38 8.05661 29.4958 0 19 0ZM11.7902 25.8662C11.6736 26.0546 11.5067 26.2105 11.3063 26.3185C11.1059 26.4264 10.879 26.4824 10.6485 26.4809C10.4135 26.4829 10.1827 26.4228 9.98178 26.3073C9.8322 26.2252 9.70121 26.1159 9.59633 25.9857C9.49145 25.8555 9.41474 25.707 9.37061 25.5486C9.32647 25.3902 9.31578 25.2252 9.33915 25.0629C9.36252 24.9006 9.41949 24.7443 9.50679 24.6029L10.8037 22.5603C10.8692 22.4548 10.9627 22.3675 11.0749 22.3069C11.1871 22.2462 11.3141 22.2145 11.4433 22.2147H11.635C12.5756 22.2147 13.2338 22.7507 13.4255 23.2698L11.7902 25.8662ZM22.7703 21.8483L14.2771 21.8571H8.63228C8.45468 21.8579 8.27877 21.8244 8.11524 21.7588C7.9517 21.6931 7.80394 21.5967 7.68092 21.4754C7.5579 21.354 7.46218 21.2102 7.39957 21.0528C7.33696 20.8953 7.30877 20.7275 7.3167 20.5594C7.34384 19.8844 7.96558 19.3733 8.67384 19.3733H12.7656L17.6166 11.5505L16.0457 9.01527C15.692 8.4375 15.8489 7.67571 16.4554 7.3125C16.6049 7.22089 16.7724 7.15887 16.9479 7.13017C17.1233 7.10147 17.3031 7.10668 17.4764 7.14549C17.6497 7.1843 17.8129 7.2559 17.9562 7.356C18.0995 7.45609 18.22 7.58261 18.3104 7.72795L19.1501 9.08679H19.1595L20 7.72795C20.0905 7.58336 20.2108 7.45753 20.3538 7.35793C20.4967 7.25834 20.6593 7.18703 20.832 7.14826C21.0046 7.10949 21.1837 7.10406 21.3586 7.13227C21.5335 7.16049 21.7006 7.22178 21.85 7.3125C22.4531 7.67571 22.6083 8.4375 22.2521 9.01768L20.6812 11.5529L19.1544 14.0191L15.8387 19.3757V19.3846H20.7253C21.3377 19.3846 22.1053 19.6963 22.4158 20.1978L22.4429 20.25C22.7169 20.6912 22.8721 20.9941 22.8721 21.4353C22.8677 21.5785 22.834 21.7196 22.7729 21.8507L22.7703 21.8483ZM29.3652 21.8571H27.0657V21.866L28.7468 24.5748C28.9276 24.8601 28.983 25.2012 28.901 25.5248C28.819 25.8484 28.6061 26.1285 28.3083 26.3049C28.1019 26.4242 27.8647 26.4873 27.6229 26.4873C27.3931 26.4872 27.1671 26.4308 26.967 26.3235C26.767 26.2162 26.5996 26.0617 26.4813 25.875L23.9968 21.8684L22.4531 19.3773L20.4615 16.1518C20.173 15.6912 20.0162 15.1674 20.0065 14.6319C19.9969 14.0965 20.1347 13.5679 20.4063 13.0982C20.7999 12.4401 21.101 12.2673 21.101 12.2673L25.5312 19.3661H29.3406C30.0531 19.3661 30.6646 19.8852 30.6977 20.5513C30.7046 20.7207 30.6752 20.8896 30.6114 21.048C30.5476 21.2063 30.4507 21.3508 30.3265 21.4728C30.2023 21.5948 30.0533 21.6917 29.8885 21.7577C29.7238 21.8238 29.5466 21.8576 29.3677 21.8571H29.3652Z" fill="black"/>
</svg>
