<svg width="30" height="30" viewBox="0 0 30 30" fill="none" xmlns="http://www.w3.org/2000/svg">
<path opacity="0.8" d="M15 0C6.71384 0 0 6.71384 0 15C0 23.2862 6.71384 30 15 30C23.2862 30 30 23.2862 30 15C30 6.71384 23.2862 0 15 0ZM9.30804 21.5551C9.21599 21.7121 9.08423 21.8421 8.92601 21.932C8.76779 22.022 8.58868 22.0687 8.4067 22.0674C8.22121 22.0691 8.03895 22.019 7.88036 21.9228C7.76227 21.8543 7.65885 21.7633 7.57605 21.6548C7.49325 21.5462 7.43269 21.4225 7.39785 21.2905C7.36301 21.1585 7.35457 21.021 7.37302 20.8858C7.39147 20.7505 7.43644 20.6203 7.50536 20.5025L8.52924 18.8002C8.58098 18.7124 8.6548 18.6396 8.74337 18.5891C8.83195 18.5385 8.93219 18.5121 9.03415 18.5123H9.18549C9.92812 18.5123 10.4478 18.9589 10.5991 19.3915L9.30804 21.5551ZM17.9766 18.2069L11.2714 18.2143H6.81496C6.67474 18.2149 6.53587 18.187 6.40676 18.1323C6.27766 18.0776 6.16101 17.9973 6.06388 17.8961C5.96676 17.795 5.8912 17.6752 5.84177 17.544C5.79234 17.4128 5.77008 17.2729 5.77634 17.1328C5.79777 16.5703 6.28862 16.1444 6.84777 16.1444H10.0781L13.9078 9.62545L12.6676 7.51272C12.3884 7.03125 12.5123 6.39643 12.9911 6.09375C13.1091 6.01741 13.2414 5.96573 13.3799 5.94181C13.5184 5.91789 13.6603 5.92224 13.7971 5.95458C13.9339 5.98692 14.0628 6.04659 14.176 6.13C14.2891 6.21341 14.3842 6.31884 14.4556 6.43996L15.1185 7.57232H15.1259L15.7895 6.43996C15.8609 6.31947 15.9559 6.21461 16.0688 6.13161C16.1816 6.04862 16.31 5.98919 16.4463 5.95689C16.5826 5.92458 16.724 5.92005 16.8621 5.94356C17.0001 5.96707 17.1321 6.01815 17.25 6.09375C17.7261 6.39643 17.8487 7.03125 17.5674 7.51473L16.3272 9.62746L15.1219 11.6826L12.5042 16.1464V16.1538H16.3621C16.8455 16.1538 17.4516 16.4136 17.6966 16.8315L17.7181 16.875C17.9344 17.2426 18.0569 17.4951 18.0569 17.8627C18.0534 17.9821 18.0268 18.0997 17.9786 18.2089L17.9766 18.2069ZM23.183 18.2143H21.3676V18.2217L22.6949 20.479C22.8376 20.7168 22.8813 21.001 22.8166 21.2707C22.7518 21.5403 22.5838 21.7738 22.3487 21.9208C22.1857 22.0201 21.9985 22.0727 21.8076 22.0728C21.6261 22.0727 21.4477 22.0257 21.2898 21.9362C21.1318 21.8468 20.9997 21.7181 20.9062 21.5625L18.9449 18.2237L17.7261 16.1478L16.1538 13.4598C15.9261 13.076 15.8023 12.6395 15.7946 12.1933C15.787 11.7471 15.8958 11.3065 16.1103 10.9152C16.421 10.3667 16.6587 10.2228 16.6587 10.2228L20.1562 16.1384H23.1636C23.7261 16.1384 24.2089 16.571 24.235 17.1261C24.2405 17.2673 24.2173 17.408 24.1669 17.54C24.1166 17.6719 24.04 17.7924 23.942 17.894C23.8439 17.9956 23.7263 18.0764 23.5962 18.1314C23.4661 18.1865 23.3263 18.2147 23.185 18.2143H23.183Z" fill="#545454"/>
</svg>
