<svg width="22" height="24" viewBox="0 0 22 24" fill="none" xmlns="http://www.w3.org/2000/svg">
<path d="M0.546164 1.29251L11.4712 12.0063L0.627414 22.8188C0.450007 22.5877 0.312292 22.3288 0.219914 22.0525C0.172138 21.7397 0.172138 21.4215 0.219914 21.1088V2.70876C0.187414 2.21501 0.301164 1.72126 0.544914 1.29251M16.1774 7.33376L12.6112 10.8663L1.81616 0.250007C2.16616 0.128757 2.54116 0.0950068 2.90741 0.152507C3.48241 0.310007 4.03116 0.552507 4.53491 0.868757L14.3049 6.27501C14.9399 6.61626 15.5587 6.97501 16.1774 7.33376ZM12.6124 13.1625L16.1612 16.6475L13.5887 18.08L5.73991 22.4425C5.08991 22.8013 4.43741 23.1438 3.80241 23.535C3.5307 23.7042 3.22602 23.8134 2.90872 23.8555C2.59142 23.8975 2.2688 23.8713 1.96241 23.7788L12.6124 13.1625ZM21.8124 12.0063C21.8215 12.4434 21.7111 12.8746 21.493 13.2535C21.2749 13.6324 20.9574 13.9446 20.5749 14.1563L17.6424 15.7838L13.7837 12.0063L17.6587 8.16376C18.6524 8.71751 19.6299 9.27126 20.6062 9.79251C20.9955 10.0101 21.3153 10.3335 21.5285 10.7253C21.7418 11.117 21.841 11.5611 21.8124 12.0063Z" fill="black"/>
</svg>
