<svg width="38" height="36" viewBox="0 0 38 36" fill="none" xmlns="http://www.w3.org/2000/svg">
<path d="M11.02 0H26.98C33.06 0 38 4.68 38 10.44V25.56C38 28.3289 36.839 30.9843 34.7723 32.9422C32.7057 34.9001 29.9027 36 26.98 36H11.02C4.94 36 0 31.32 0 25.56V10.44C0 7.67114 1.16103 5.01569 3.22768 3.05781C5.29433 1.09993 8.09731 0 11.02 0ZM10.64 3.6C8.82592 3.6 7.08614 4.28271 5.80339 5.49795C4.52064 6.71318 3.8 8.3614 3.8 10.08V25.92C3.8 29.502 6.859 32.4 10.64 32.4H27.36C29.1741 32.4 30.9139 31.7173 32.1966 30.5021C33.4794 29.2868 34.2 27.6386 34.2 25.92V10.08C34.2 6.498 31.141 3.6 27.36 3.6H10.64ZM28.975 6.3C29.6049 6.3 30.209 6.53705 30.6544 6.95901C31.0998 7.38097 31.35 7.95326 31.35 8.55C31.35 9.14674 31.0998 9.71903 30.6544 10.141C30.209 10.5629 29.6049 10.8 28.975 10.8C28.3451 10.8 27.741 10.5629 27.2956 10.141C26.8502 9.71903 26.6 9.14674 26.6 8.55C26.6 7.95326 26.8502 7.38097 27.2956 6.95901C27.741 6.53705 28.3451 6.3 28.975 6.3ZM19 9C21.5196 9 23.9359 9.94821 25.7175 11.636C27.4991 13.3239 28.5 15.6131 28.5 18C28.5 20.3869 27.4991 22.6761 25.7175 24.364C23.9359 26.0518 21.5196 27 19 27C16.4804 27 14.0641 26.0518 12.2825 24.364C10.5009 22.6761 9.5 20.3869 9.5 18C9.5 15.6131 10.5009 13.3239 12.2825 11.636C14.0641 9.94821 16.4804 9 19 9ZM19 12.6C17.4883 12.6 16.0384 13.1689 14.9695 14.1816C13.9005 15.1943 13.3 16.5678 13.3 18C13.3 19.4322 13.9005 20.8057 14.9695 21.8184C16.0384 22.8311 17.4883 23.4 19 23.4C20.5117 23.4 21.9616 22.8311 23.0305 21.8184C24.0995 20.8057 24.7 19.4322 24.7 18C24.7 16.5678 24.0995 15.1943 23.0305 14.1816C21.9616 13.1689 20.5117 12.6 19 12.6Z" fill="black"/>
</svg>
