<svg width="38" height="36" viewBox="0 0 38 36" fill="none" xmlns="http://www.w3.org/2000/svg">
<path fill-rule="evenodd" clip-rule="evenodd" d="M38 5.08329C38 2.27588 35.5977 0 32.6343 0H5.3657C2.40231 0 0 2.27588 0 5.08329V30.9167C0 33.7242 2.40231 36 5.3657 36H32.6343C35.5977 36 38 33.7242 38 30.9167V5.08329ZM31.4811 15.7012C29.0293 15.7272 26.7448 15.025 24.739 13.7245V22.8538C24.739 26.9113 21.8073 30.3967 17.6617 31.307C12.006 32.5294 7.21815 28.6541 6.61428 24.0244C5.98281 19.3946 9.09958 15.3371 13.8767 14.4268C14.8101 14.2448 16.2141 14.2448 16.9384 14.4008V19.2906C16.7155 19.2387 16.5068 19.1866 16.2872 19.1606C14.4203 18.8484 12.6121 19.7328 11.8708 21.3453C11.1296 22.9581 11.6257 24.8306 13.1357 25.9232C14.3985 26.8595 15.7997 26.9894 17.2273 26.3652C18.6551 25.7671 19.4223 24.6747 19.587 23.1921C19.6144 22.9842 19.6129 22.75 19.6129 22.5159V4.95927C19.6129 4.46512 19.617 4.48668 20.1386 4.48668H24.2293C24.5314 4.48668 24.6413 4.52785 24.6687 4.86616C24.8882 7.88328 27.3062 10.4528 30.4085 10.843C30.738 10.8949 31.091 10.9156 31.4811 10.9415V15.7012Z" fill="black"/>
</svg>
